<svg version="1.1" id="Layer_1" xmlns="http://www.w3.org/2000/svg" xmlns:xlink="http://www.w3.org/1999/xlink" x="0px" y="0px"
	 width="100%" viewBox="0 0 506 493" enable-background="new 0 0 506 493" xml:space="preserve">
<path fill="#000000" opacity="1.000000" stroke="none" 
	d="
M351.000000,494.000000 
	C234.000031,494.000000 117.500053,494.000000 1.000062,494.000000 
	C1.000042,329.666748 1.000042,165.333466 1.000021,1.000151 
	C169.666550,1.000100 338.333099,1.000100 506.999756,1.000050 
	C506.999817,165.333191 506.999817,329.666382 506.999908,493.999786 
	C455.166656,494.000000 403.333344,494.000000 351.000000,494.000000 
M224.230515,111.264557 
	C215.111481,114.150604 206.032516,117.171867 196.863770,119.890205 
	C183.944031,123.720619 170.933380,127.243828 158.006012,131.049210 
	C141.303360,135.965897 124.592705,140.869614 108.014320,146.181000 
	C105.010117,147.143463 102.140259,149.633148 100.053741,152.125504 
	C95.462158,157.610153 91.358078,163.508789 87.151161,169.308197 
	C81.069420,177.692108 75.072861,186.137817 68.299950,195.121185 
	C68.200462,195.771561 68.014183,196.421921 68.013924,197.072327 
	C68.000053,231.902878 67.992386,266.733429 68.042542,301.563934 
	C68.044243,302.746704 68.643723,303.928650 69.309464,305.729401 
	C73.463058,307.610657 77.596817,309.537292 81.774017,311.364624 
	C93.848267,316.646423 105.940002,321.888214 118.316864,327.690979 
	C119.213005,328.189056 120.109138,328.687134 121.270988,329.801849 
	C122.961617,332.177460 124.602112,334.590668 126.351013,336.922577 
	C137.859009,352.266754 149.420609,367.570801 160.905869,382.931946 
	C173.358582,399.587036 185.747253,416.289978 198.323593,433.793579 
	C201.426636,434.738098 201.003586,432.585358 201.002884,430.765442 
	C200.997116,415.813446 201.018356,400.861389 200.958847,385.909607 
	C200.954834,384.901764 200.360947,383.896301 200.397278,382.258698 
	C200.887802,382.192322 201.449051,381.935181 201.858704,382.087036 
	C219.215134,388.520081 236.569275,394.959656 253.900040,401.461517 
	C282.194183,412.076416 310.495087,422.674408 338.724823,433.458344 
	C341.928375,434.682129 344.175415,434.046387 346.507233,432.066589 
	C348.504028,430.371307 350.538055,428.719940 352.537323,427.027496 
	C365.544281,416.016449 378.507019,404.952698 391.560486,393.997040 
	C405.979370,381.895447 420.479980,369.891174 435.798462,357.627747 
	C435.868134,357.136505 435.998749,356.645264 435.998810,356.154022 
	C436.005219,280.944305 436.006775,205.734604 435.956818,130.524918 
	C435.956085,129.402100 435.311829,128.279694 434.116302,127.004745 
	C433.284393,126.990158 432.432343,126.850220 431.623596,126.980003 
	C421.378143,128.624115 411.152100,130.393524 400.894867,131.959045 
	C386.733673,134.120392 372.550171,136.135422 357.804474,138.154297 
	C357.211884,138.157928 356.619263,138.161560 355.395477,137.837067 
	C349.927704,134.374130 344.498810,130.847900 338.985107,127.459747 
	C320.078491,115.841743 301.143188,104.270401 282.216797,92.684616 
	C263.855743,81.444901 245.492126,70.209366 226.707230,58.251625 
	C226.137100,59.566372 225.082108,60.876896 225.070618,62.196507 
	C224.929077,78.445534 224.940002,94.695885 224.230515,111.264557 
z"/>
<path fill="#0178D4" opacity="1.000000" stroke="none" 
	d="
M434.944977,357.844513 
	C420.479980,369.891174 405.979370,381.895447 391.560486,393.997040 
	C378.507019,404.952698 365.544281,416.016449 352.537323,427.027496 
	C350.538055,428.719940 348.504028,430.371307 346.507233,432.066589 
	C344.175415,434.046387 341.928375,434.682129 338.724823,433.458344 
	C310.495087,422.674408 282.194183,412.076416 253.900040,401.461517 
	C236.569275,394.959656 219.215134,388.520081 201.858704,382.087036 
	C201.449051,381.935181 200.887802,382.192322 200.131836,383.042847 
	C199.854507,398.750549 199.888733,413.674500 199.758163,428.596985 
	C199.745361,430.059906 198.719482,431.513916 198.163849,432.972076 
	C185.747253,416.289978 173.358582,399.587036 160.905869,382.931946 
	C149.420609,367.570801 137.859009,352.266754 126.351013,336.922577 
	C124.602112,334.590668 122.961617,332.177460 121.215187,329.211517 
	C121.203964,328.431580 121.248535,328.241943 121.735939,328.025482 
	C129.521011,328.660675 136.852264,329.512299 144.208176,329.938751 
	C154.321945,330.525055 164.466110,330.603424 174.575638,331.241882 
	C185.723709,331.945862 196.841934,333.110138 207.983582,333.932831 
	C214.749817,334.432434 221.545868,334.534302 228.309875,335.056519 
	C234.350739,335.522949 240.360001,336.384583 246.394119,336.956787 
	C254.139816,337.691315 261.894287,338.337097 269.648926,338.972382 
	C277.027496,339.576843 284.404205,340.243591 291.794342,340.657837 
	C302.202240,341.241180 312.634125,341.433441 323.032928,342.132599 
	C333.682465,342.848633 344.304504,343.974213 355.332458,344.747742 
	C355.790131,331.028839 355.853943,317.482635 355.954468,303.697723 
	C355.991180,303.458984 356.151794,303.003357 356.403442,302.674683 
	C356.743103,287.545959 356.831146,272.745911 356.934570,257.482239 
	C356.931519,247.669952 356.913055,238.321320 356.932465,228.507446 
	C356.919495,218.997009 356.868683,209.951813 356.843811,200.444641 
	C356.938507,181.054443 356.975281,162.125931 357.131744,143.198410 
	C357.145477,141.533325 357.942810,139.874710 358.376221,138.213089 
	C372.550171,136.135422 386.733673,134.120392 400.894867,131.959045 
	C411.152100,130.393524 421.378143,128.624115 431.623596,126.980003 
	C432.432343,126.850220 433.284393,126.990158 434.551758,127.538704 
	C434.973114,204.663284 434.959045,281.253906 434.944977,357.844513 
z"/>
<path fill="#0178D4" opacity="1.000000" stroke="none" 
	d="
M118.024879,327.145691 
	C105.940002,321.888214 93.848267,316.646423 81.774017,311.364624 
	C77.596817,309.537292 73.463058,307.610657 69.162369,304.944916 
	C69.023499,267.626007 69.031723,231.091568 69.039963,194.557144 
	C75.072861,186.137817 81.069420,177.692108 87.151161,169.308197 
	C91.358078,163.508789 95.462158,157.610153 100.053741,152.125504 
	C102.140259,149.633148 105.010117,147.143463 108.014320,146.181000 
	C124.592705,140.869614 141.303360,135.965897 158.006012,131.049210 
	C170.933380,127.243828 183.944031,123.720619 196.863770,119.890205 
	C206.032516,117.171867 215.111481,114.150604 224.945831,110.903458 
	C225.774475,95.012817 225.854843,79.482864 226.049011,63.954330 
	C226.069839,62.289307 226.753479,60.632572 227.129639,58.971992 
	C245.492126,70.209366 263.855743,81.444901 282.216797,92.684616 
	C301.143188,104.270401 320.078491,115.841743 338.985107,127.459747 
	C344.498810,130.847900 349.927704,134.374130 355.489685,138.228607 
	C354.225952,139.012558 352.868011,139.404984 351.096863,139.933075 
	C345.319946,141.379761 339.985596,142.828445 334.587311,143.976807 
	C315.961670,147.938919 297.302521,151.743347 278.678009,155.710785 
	C264.519135,158.726913 250.412704,161.990234 236.248444,164.980087 
	C217.447144,168.948715 198.603256,172.715256 179.794266,176.647980 
	C160.212982,180.742203 140.651459,184.930832 120.790787,188.972778 
	C120.335541,190.639359 120.028076,192.411240 120.026962,194.183334 
	C120.000160,236.723679 120.030128,279.264099 119.922394,321.804169 
	C119.917877,323.586243 118.685326,325.365265 118.024879,327.145691 
z"/>
<path fill="#6AB0E6" opacity="1.000000" stroke="none" 
	d="
M435.371704,357.736145 
	C434.959045,281.253906 434.973114,204.663284 434.977539,127.614883 
	C435.311829,128.279694 435.956085,129.402100 435.956818,130.524918 
	C436.006775,205.734604 436.005219,280.944305 435.998810,356.154022 
	C435.998749,356.645264 435.868134,357.136505 435.371704,357.736145 
z"/>
<path fill="#84BEEA" opacity="1.000000" stroke="none" 
	d="
M118.170868,327.418335 
	C118.685326,325.365265 119.917877,323.586243 119.922394,321.804169 
	C120.030128,279.264099 120.000160,236.723679 120.026962,194.183334 
	C120.028076,192.411240 120.335541,190.639359 120.755234,189.435913 
	C121.006676,234.535782 121.000328,279.067108 121.012024,323.598419 
	C121.012413,325.083099 121.195297,326.567688 121.293114,328.052338 
	C121.248535,328.241943 121.203964,328.431580 121.082329,328.903198 
	C120.109138,328.687134 119.213005,328.189056 118.170868,327.418335 
z"/>
<path fill="#54A5E2" opacity="1.000000" stroke="none" 
	d="
M68.669952,194.839172 
	C69.031723,231.091568 69.023499,267.626007 68.989914,304.635681 
	C68.643723,303.928650 68.044243,302.746704 68.042542,301.563934 
	C67.992386,266.733429 68.000053,231.902878 68.013924,197.072327 
	C68.014183,196.421921 68.200462,195.771561 68.669952,194.839172 
z"/>
<path fill="#D3E7F8" opacity="1.000000" stroke="none" 
	d="
M351.510101,139.797409 
	C352.868011,139.404984 354.225952,139.012558 355.805267,138.392670 
	C356.619263,138.161560 357.211884,138.157928 358.090332,138.183685 
	C357.942810,139.874710 357.145477,141.533325 357.131744,143.198410 
	C356.975281,162.125931 356.938507,181.054443 356.682678,200.457703 
	C356.495636,200.932724 356.172546,200.947693 356.118591,200.485123 
	C356.064667,180.071701 356.064667,160.120865 356.064667,140.190735 
	C354.143250,140.024811 352.826691,139.911102 351.510101,139.797409 
z"/>
<path fill="#84BEEA" opacity="1.000000" stroke="none" 
	d="
M226.918442,58.611809 
	C226.753479,60.632572 226.069839,62.289307 226.049011,63.954330 
	C225.854843,79.482864 225.774475,95.012817 225.286362,110.744125 
	C224.940002,94.695885 224.929077,78.445534 225.070618,62.196507 
	C225.082108,60.876896 226.137100,59.566372 226.918442,58.611809 
z"/>
<path fill="#F2F8FD" opacity="1.000000" stroke="none" 
	d="
M198.243713,433.382812 
	C198.719482,431.513916 199.745361,430.059906 199.758163,428.596985 
	C199.888733,413.674500 199.854507,398.750549 199.953888,383.358368 
	C200.360947,383.896301 200.954834,384.901764 200.958847,385.909607 
	C201.018356,400.861389 200.997116,415.813446 201.002884,430.765442 
	C201.003586,432.585358 201.426636,434.738098 198.243713,433.382812 
z"/>
<path fill="#000000" opacity="1.000000" stroke="none" 
	d="
M351.096863,139.933075 
	C352.826691,139.911102 354.143250,140.024811 356.064667,140.190735 
	C356.064667,160.120865 356.064667,180.071701 356.024231,200.949570 
	C356.038818,210.920761 356.093903,219.964951 356.071960,229.471588 
	C356.047638,239.292664 356.100372,248.651276 356.073669,258.471924 
	C356.046753,273.623779 356.099274,288.313568 356.151794,303.003357 
	C356.151794,303.003357 355.991180,303.458984 355.571289,303.909302 
	C355.080475,317.879944 355.009521,331.400208 354.938568,344.920502 
	C344.304504,343.974213 333.682465,342.848633 323.032928,342.132599 
	C312.634125,341.433441 302.202240,341.241180 291.794342,340.657837 
	C284.404205,340.243591 277.027496,339.576843 269.648926,338.972382 
	C261.894287,338.337097 254.139816,337.691315 246.394119,336.956787 
	C240.360001,336.384583 234.350739,335.522949 228.309875,335.056519 
	C221.545868,334.534302 214.749817,334.432434 207.983582,333.932831 
	C196.841934,333.110138 185.723709,331.945862 174.575638,331.241882 
	C164.466110,330.603424 154.321945,330.525055 144.208176,329.938751 
	C136.852264,329.512299 129.521011,328.660675 121.735939,328.025482 
	C121.195297,326.567688 121.012413,325.083099 121.012024,323.598419 
	C121.000328,279.067108 121.006676,234.535782 121.045731,189.541321 
	C140.651459,184.930832 160.212982,180.742203 179.794266,176.647980 
	C198.603256,172.715256 217.447144,168.948715 236.248444,164.980087 
	C250.412704,161.990234 264.519135,158.726913 278.678009,155.710785 
	C297.302521,151.743347 315.961670,147.938919 334.587311,143.976807 
	C339.985596,142.828445 345.319946,141.379761 351.096863,139.933075 
z"/>
<path fill="#3D98DE" opacity="1.000000" stroke="none" 
	d="
M356.403442,302.674683 
	C356.099274,288.313568 356.046753,273.623779 356.265686,258.461670 
	C356.537109,257.989380 356.919189,257.945862 356.919189,257.945862 
	C356.831146,272.745911 356.743103,287.545959 356.403442,302.674683 
z"/>
<path fill="#F2F8FD" opacity="1.000000" stroke="none" 
	d="
M355.332458,344.747742 
	C355.009521,331.400208 355.080475,317.879944 355.534576,304.148071 
	C355.853943,317.482635 355.790131,331.028839 355.332458,344.747742 
z"/>
<path fill="#6AB0E6" opacity="1.000000" stroke="none" 
	d="
M356.934570,257.482239 
	C356.919189,257.945862 356.537109,257.989380 356.345093,257.999634 
	C356.100372,248.651276 356.047638,239.292664 356.258514,229.465958 
	C356.522125,228.997864 356.894592,228.972687 356.894592,228.972687 
	C356.913055,238.321320 356.931519,247.669952 356.934570,257.482239 
z"/>
<path fill="#84BEEA" opacity="1.000000" stroke="none" 
	d="
M356.932465,228.507446 
	C356.894592,228.972687 356.522125,228.997864 356.335571,229.003494 
	C356.093903,219.964951 356.038818,210.920761 356.078156,201.412140 
	C356.172546,200.947693 356.495636,200.932724 356.656738,200.919678 
	C356.868683,209.951813 356.919495,218.997009 356.932465,228.507446 
z"/>
</svg>